<svg width="812" height="97" viewBox="0 0 812 97" fill="none" xmlns="http://www.w3.org/2000/svg">
<g filter="url(#filter0_d_65_596)">
<path d="M0.4 7.52799H89.872V20.328H57.872V97H32.272V20.328H0.4V7.52799ZM137.975 20.328C132.599 20.328 128.375 25.32 128.375 31.464V45.8H160.375V58.728H128.375V84.2H192.375V97H102.775V29.8C102.775 17.512 111.351 7.52799 121.975 7.52799H192.375V20.328H137.975ZM240.35 20.328C234.974 20.328 230.75 25.32 230.75 31.464V73.064C230.75 79.208 234.974 84.2 240.35 84.2H294.75V97H224.35C213.726 97 205.15 87.016 205.15 74.6V29.8C205.15 17.512 213.726 7.52799 224.35 7.52799H294.75V20.328H240.35ZM371.397 7.52799H396.997V97H371.397V58.728H332.997V97H307.525V7.52799H332.997V45.928H371.397V7.52799ZM409.9 7.52799H499.372V20.328H467.372V97H441.772V20.328H409.9V7.52799ZM601.747 36.328C601.747 45.16 596.115 52.328 588.947 52.328C596.115 52.328 601.747 59.368 601.747 68.328V97H576.147V66.664C576.147 62.312 573.331 58.728 569.747 58.728H537.747V97H512.275V7.52799H582.547C590.227 7.52799 596.883 12.648 599.955 20.328C601.107 23.144 601.747 26.472 601.747 29.928V36.328ZM576.147 37.864V31.464C576.147 25.32 571.923 20.328 566.547 20.328H537.747V45.928H569.747C573.331 45.928 576.147 42.344 576.147 37.864ZM649.85 20.328C644.474 20.328 640.25 25.32 640.25 31.464V45.8H672.25V58.728H640.25V84.2H704.25V97H614.65V29.8C614.65 17.512 623.226 7.52799 633.85 7.52799H704.25V20.328H649.85ZM808.673 7.52799L767.585 52.328L808.673 97H777.697L742.497 58.728V97H717.025V7.52799H742.497V45.928L777.697 7.52799H808.673Z" fill="white"/>
</g>
<defs>
<filter id="filter0_d_65_596" x="0.400391" y="0.527344" width="811.272" height="96.4727" filterUnits="userSpaceOnUse" color-interpolation-filters="sRGB">
<feFlood flood-opacity="0" result="BackgroundImageFix"/>
<feColorMatrix in="SourceAlpha" type="matrix" values="0 0 0 0 0 0 0 0 0 0 0 0 0 0 0 0 0 0 127 0" result="hardAlpha"/>
<feOffset dx="3" dy="-7"/>
<feComposite in2="hardAlpha" operator="out"/>
<feColorMatrix type="matrix" values="0 0 0 0 0.247059 0 0 0 0 0.0745098 0 0 0 0 0.65098 0 0 0 1 0"/>
<feBlend mode="normal" in2="BackgroundImageFix" result="effect1_dropShadow_65_596"/>
<feBlend mode="normal" in="SourceGraphic" in2="effect1_dropShadow_65_596" result="shape"/>
</filter>
</defs>
</svg>
